<svg width="760" height="760" viewBox="0 0 760 760" fill="none" xmlns="http://www.w3.org/2000/svg">
<g filter="url(#filter0_i_5637_48885)">
<path d="M271.923 108.077C422.102 48.3878 592.234 121.744 651.923 271.923C711.612 422.102 638.256 592.233 488.077 651.923C337.898 711.612 167.767 638.256 108.077 488.077C48.3879 337.898 121.744 167.766 271.923 108.077Z" fill="white" fill-opacity="0.01"/>
</g>
<path d="M479.258 131.301C479.258 111.963 494.934 96.2874 514.272 96.2874C533.609 96.2874 549.285 111.963 549.285 131.301C549.285 150.638 533.609 166.315 514.272 166.315C494.934 166.315 479.258 150.638 479.258 131.301Z" fill="#336CED"/>
<g clip-path="url(#clip0_5637_48885)">
<path d="M497.472 137.164L509.162 131.961L515.89 135.863L517.25 148.665L508.958 148.597L510.181 139.697L508.754 138.876L501.754 144.352L497.472 137.164Z" fill="white"/>
<path d="M516.64 135.315L526.97 142.914L531.048 135.589L522.757 132.234V130.591L531.048 127.168L526.97 119.912L516.64 127.511V135.315Z" fill="white"/>
<path d="M515.89 126.895L517.25 114.093L508.958 114.23L510.181 123.13L508.754 123.951L501.686 118.474L497.472 125.594L509.162 130.797L515.89 126.895Z" fill="white"/>
</g>
<path d="M610.063 268.239C610.063 248.901 625.739 233.225 645.076 233.225C664.414 233.225 680.09 248.901 680.09 268.239C680.09 287.576 664.414 303.252 645.076 303.252C625.739 303.252 610.063 287.576 610.063 268.239Z" fill="#E8EBF0"/>
<g clip-path="url(#clip1_5637_48885)">
<path d="M632.172 260.984C633.42 264.988 637.678 267.221 641.681 265.973C645.685 264.724 655.167 258.206 653.918 254.202C652.67 250.199 641.163 250.226 637.16 251.475C633.156 252.723 630.923 256.981 632.172 260.984Z" fill="url(#paint0_radial_5637_48885)"/>
<path d="M629.754 282.937C632.104 285.287 635.913 285.287 638.263 282.937C640.613 280.587 644.867 272.523 642.518 270.173C640.168 267.823 632.104 272.078 629.754 274.428C627.404 276.777 627.404 280.587 629.754 282.937Z" fill="url(#paint1_radial_5637_48885)"/>
<path d="M652.238 285.248C656.289 286.334 660.453 283.93 661.538 279.879C662.623 275.828 662.185 264.33 658.134 263.245C654.083 262.159 647.955 271.898 646.869 275.948C645.783 279.999 648.187 284.163 652.238 285.248Z" fill="url(#paint2_linear_5637_48885)"/>
</g>
<path d="M630.848 417.633C630.848 398.295 646.524 382.619 665.862 382.619C685.199 382.619 700.875 398.295 700.875 417.633C700.875 436.97 685.199 452.646 665.862 452.646C646.524 452.646 630.848 436.97 630.848 417.633Z" fill="#441949"/>
<g clip-path="url(#clip2_5637_48885)">
<path fill-rule="evenodd" clip-rule="evenodd" d="M675.902 406.28H661.473V400.159H682.023V420.709H675.902V406.28Z" fill="white"/>
<path fill-rule="evenodd" clip-rule="evenodd" d="M664.631 418.46C663.697 417.835 662.598 417.502 661.473 417.502V411.38C663.808 411.38 666.091 412.073 668.032 413.37C669.973 414.667 671.487 416.511 672.38 418.668C673.274 420.825 673.507 423.199 673.052 425.489C672.596 427.779 671.472 429.882 669.821 431.533C668.17 433.184 666.066 434.309 663.776 434.764C661.486 435.22 659.113 434.986 656.956 434.092C654.799 433.199 652.955 431.686 651.658 429.744C650.36 427.803 649.668 425.52 649.668 423.186H655.789C655.789 424.31 656.123 425.409 656.747 426.343C657.372 427.278 658.26 428.007 659.298 428.437C660.337 428.867 661.48 428.98 662.582 428.76C663.685 428.541 664.698 428 665.493 427.205C666.287 426.41 666.829 425.397 667.048 424.295C667.267 423.192 667.155 422.049 666.725 421.01C666.295 419.972 665.566 419.084 664.631 418.46Z" fill="white"/>
</g>
<path d="M571.864 554.432C571.864 535.094 587.541 519.418 606.878 519.418C626.216 519.418 641.892 535.094 641.892 554.432C641.892 573.769 626.216 589.446 606.878 589.446C587.541 589.446 571.864 573.769 571.864 554.432Z" fill="#FAFAFD"/>
<g clip-path="url(#clip3_5637_48885)">
<path d="M606.651 537.683V551.623C606.651 553.214 605.361 554.504 603.77 554.504H589.83V548.742H596.808L589.477 541.412L593.551 537.337L600.889 544.676V537.683H606.651Z" fill="black"/>
<path d="M623.668 554.702H609.728C608.137 554.702 606.847 555.991 606.847 557.582V571.522L612.609 571.522V564.545L619.94 571.876L624.014 567.802L616.676 560.463H623.668V554.702Z" fill="black"/>
</g>
<path d="M473.064 638.592C473.064 619.254 488.741 603.578 508.078 603.578C527.415 603.578 543.092 619.254 543.092 638.592C543.092 657.929 527.415 673.605 508.078 673.605C488.741 673.605 473.064 657.929 473.064 638.592Z" fill="#5865F2"/>
<g clip-path="url(#clip4_5637_48885)">
<path d="M506.639 621.705C507.557 621.175 508.688 621.175 509.606 621.705L521.762 628.723L513.357 633.645C512.056 632.339 510.255 631.531 508.266 631.531C506.197 631.531 504.332 632.405 503.021 633.804L494.413 628.764L506.639 621.705Z" fill="white"/>
<path d="M501.381 636.648L492.771 631.606V645.699L501.349 640.676C501.173 640.053 501.079 639.396 501.079 638.717C501.079 637.998 501.184 637.303 501.381 636.648Z" fill="white"/>
<path d="M502.941 643.545L494.545 648.461L506.637 655.442C507.555 655.972 508.686 655.972 509.604 655.442L521.625 648.501L513.435 643.706C512.128 645.06 510.294 645.902 508.263 645.902C506.153 645.902 504.256 644.993 502.941 643.545Z" fill="white"/>
<path d="M515.116 640.888L523.471 645.78C523.471 645.761 523.471 645.742 523.471 645.723V631.524L515.081 636.437C515.32 637.154 515.45 637.92 515.45 638.717C515.45 639.473 515.333 640.203 515.116 640.888Z" fill="white"/>
</g>
<path d="M358.567 667.951C358.567 648.613 374.243 632.937 393.58 632.937C412.918 632.937 428.594 648.613 428.594 667.951C428.594 687.288 412.918 702.964 393.58 702.964C374.243 702.964 358.567 687.288 358.567 667.951Z" fill="#E6001F"/>
<g clip-path="url(#clip5_5637_48885)">
<path d="M402.519 679.369C401.283 679.369 400.521 678.798 399.276 678.126C398.031 677.453 394.431 674.746 394.431 671.377C394.431 669.091 393.842 667.242 392.838 665.769C391.842 664.306 390.493 663.293 389.089 662.578C388.413 662.234 387.709 661.952 387.008 661.719C386.599 661.584 386.362 661.145 386.54 660.753C387.663 658.265 390.166 656.534 393.073 656.534C397.03 656.534 400.238 659.742 400.238 663.7C400.238 664.546 400.092 665.359 399.822 666.113C400.964 665.343 402.34 664.894 403.821 664.894C407.778 664.894 410.987 668.102 410.987 672.059C410.987 676.823 406.8 679.369 402.519 679.369Z" fill="white"/>
<path d="M376.351 671.462C376.351 675.239 378.841 678.386 382.14 679.081C382.649 679.267 383.199 679.368 383.772 679.368H394.905C395.279 679.368 395.441 678.869 395.156 678.628C393.211 676.982 391.765 674.662 391.765 671.376C391.765 669.571 391.308 668.256 390.634 667.268C389.953 666.268 388.995 665.521 387.878 664.951C386.75 664.377 385.525 664.011 384.356 663.752C384.081 663.717 383.801 663.699 383.517 663.699C379.559 663.699 376.351 667.174 376.351 671.462Z" fill="white"/>
</g>
<path d="M202.416 625.7C202.416 606.362 218.093 590.686 237.43 590.686C256.767 590.686 272.444 606.362 272.444 625.7C272.444 645.037 256.767 660.713 237.43 660.713C218.093 660.713 202.416 645.037 202.416 625.7Z" fill="#FAFAFD"/>
<g clip-path="url(#clip6_5637_48885)">
<path fill-rule="evenodd" clip-rule="evenodd" d="M247.371 614.471H233.085V608.41H253.431V628.756H247.371V614.471Z" fill="#4A6DFF"/>
<path fill-rule="evenodd" clip-rule="evenodd" d="M236.211 626.531C235.286 625.912 234.198 625.582 233.085 625.582V619.522C235.397 619.522 237.656 620.207 239.579 621.492C241.501 622.776 242.999 624.601 243.884 626.737C244.768 628.873 245 631.223 244.549 633.49C244.098 635.758 242.984 637.84 241.35 639.475C239.715 641.11 237.632 642.223 235.365 642.674C233.098 643.125 230.748 642.893 228.612 642.009C226.476 641.124 224.651 639.626 223.366 637.704C222.082 635.782 221.396 633.522 221.396 631.21L227.457 631.21C227.457 632.323 227.787 633.411 228.406 634.337C229.024 635.262 229.903 635.983 230.931 636.409C231.96 636.835 233.091 636.947 234.183 636.73C235.274 636.512 236.277 635.976 237.064 635.189C237.851 634.402 238.387 633.4 238.604 632.308C238.822 631.216 238.71 630.085 238.284 629.056C237.858 628.028 237.137 627.149 236.211 626.531Z" fill="#2EB9FF"/>
</g>
<path d="M86.3949 508.076C86.3949 488.739 102.071 473.062 121.408 473.062C140.746 473.062 156.422 488.739 156.422 508.076C156.422 527.414 140.746 543.09 121.408 543.09C102.071 543.09 86.3949 527.414 86.3949 508.076Z" fill="#EC4989"/>
<g clip-path="url(#clip7_5637_48885)">
<path d="M130.435 494.653H126.865V490.579H137.389V501.103H133.315V497.534L108.13 522.718L105.25 519.838L130.435 494.653Z" fill="white"/>
<path d="M107.939 492.873L105.058 495.754L115.345 506.041L118.226 503.16L107.939 492.873Z" fill="white"/>
<path d="M121.928 512.625L124.809 509.745L133.316 518.252V514.683H137.39V525.207H126.866V521.133H130.436L121.928 512.625Z" fill="white"/>
</g>
<path d="M58.0088 355.405C58.0088 336.068 73.685 320.392 93.0224 320.392C112.36 320.392 128.036 336.068 128.036 355.405C128.036 374.743 112.36 390.419 93.0224 390.419C73.685 390.419 58.0088 374.743 58.0088 355.405Z" fill="#FAFAFD"/>
<g clip-path="url(#clip8_5637_48885)">
<path d="M76.2229 361.39L87.9126 356.187L94.641 360.089L96.0002 372.891L87.7087 372.822L88.9321 363.923L87.5048 363.101L80.5046 368.578L76.2229 361.39Z" fill="#B4C0D3"/>
<path d="M95.3905 359.542L105.721 367.141L109.799 359.816L101.507 356.462V354.819L109.799 351.396L105.721 344.139L95.3905 351.738V359.542Z" fill="#00D3AB"/>
<path d="M94.641 351.122L96.0002 338.321L87.7087 338.458L88.9321 347.357L87.5048 348.179L80.4367 342.702L76.2229 349.822L87.9126 355.024L94.641 351.122Z" fill="#4876EF"/>
</g>
<path d="M103.312 215.863C103.312 196.526 118.988 180.849 138.325 180.849C157.663 180.849 173.339 196.526 173.339 215.863C173.339 235.201 157.663 250.877 138.325 250.877C118.988 250.877 103.312 235.201 103.312 215.863Z" fill="#1769FF"/>
<g clip-path="url(#clip9_5637_48885)">
<path fill-rule="evenodd" clip-rule="evenodd" d="M141.601 203.739C139.724 202.961 137.693 202.626 135.665 202.759C133.637 202.892 131.667 203.489 129.907 204.505L128.132 205.531L126.081 201.979L127.857 200.954C130.162 199.624 132.741 198.841 135.397 198.667C138.052 198.493 140.712 198.932 143.171 199.95C145.629 200.969 147.821 202.539 149.575 204.54C151.33 206.541 152.601 208.918 153.289 211.489C153.978 214.059 154.066 216.754 153.547 219.364C153.028 221.974 151.915 224.429 150.295 226.54C148.675 228.652 146.592 230.362 144.205 231.539C141.818 232.716 138.74 233.328 136.532 233.328C134.323 233.328 133.034 232.997 131.341 232.295C129.695 231.614 128.2 230.615 126.94 229.355C125.681 228.096 124.682 226.6 124 224.955C123.318 223.309 122.968 221.545 122.968 219.764C122.968 217.983 123.318 216.219 124 214.573C124.682 212.928 125.681 211.433 126.94 210.173C128.2 208.914 129.695 207.914 131.341 207.233C132.986 206.551 134.75 206.2 136.531 206.2C138.313 206.2 140.076 206.551 141.722 207.233C143.368 207.914 144.863 208.914 146.123 210.173C147.382 211.433 148.381 212.928 149.063 214.573C149.356 215.281 149.588 216.011 149.757 216.755C149.84 215.343 149.696 213.923 149.329 212.55C148.803 210.587 147.832 208.771 146.492 207.244C145.152 205.716 143.479 204.517 141.601 203.739ZM128.342 224.506C128.574 220.097 132.223 216.594 136.689 216.594C140.983 216.594 144.521 219.831 144.994 223.999C145.095 223.798 145.188 223.593 145.274 223.386C145.75 222.237 145.995 221.007 145.995 219.764C145.995 218.521 145.75 217.291 145.274 216.143C144.799 214.995 144.102 213.951 143.223 213.073C142.344 212.194 141.301 211.497 140.153 211.021C139.005 210.546 137.774 210.301 136.531 210.301C135.289 210.301 134.058 210.546 132.91 211.021C131.762 211.497 130.719 212.194 129.84 213.073C128.961 213.951 128.264 214.995 127.789 216.143C127.313 217.291 127.068 218.521 127.068 219.764C127.068 221.007 127.313 222.237 127.789 223.386C127.949 223.771 128.133 224.146 128.342 224.506ZM140.948 224.953C140.948 227.305 139.041 229.212 136.689 229.212C134.337 229.212 132.431 227.305 132.431 224.953C132.431 222.601 134.337 220.695 136.689 220.695C139.041 220.695 140.948 222.601 140.948 224.953Z" fill="white"/>
</g>
<defs>
<filter id="filter0_i_5637_48885" x="0" y="0" width="760" height="760" filterUnits="userSpaceOnUse" color-interpolation-filters="sRGB">
<feFlood flood-opacity="0" result="BackgroundImageFix"/>
<feBlend mode="normal" in="SourceGraphic" in2="BackgroundImageFix" result="shape"/>
<feColorMatrix in="SourceAlpha" type="matrix" values="0 0 0 0 0 0 0 0 0 0 0 0 0 0 0 0 0 0 127 0" result="hardAlpha"/>
<feMorphology radius="1" operator="erode" in="SourceAlpha" result="effect1_innerShadow_5637_48885"/>
<feOffset/>
<feComposite in2="hardAlpha" operator="arithmetic" k2="-1" k3="1"/>
<feColorMatrix type="matrix" values="0 0 0 0 0.894118 0 0 0 0 0.905882 0 0 0 0 0.92549 0 0 0 1 0"/>
<feBlend mode="normal" in2="shape" result="effect1_innerShadow_5637_48885"/>
</filter>
<radialGradient id="paint0_radial_5637_48885" cx="0" cy="0" r="1" gradientUnits="userSpaceOnUse" gradientTransform="translate(654.023 254.013) rotate(162.759) scale(32.0231 45.621)">
<stop stop-color="#3E96F7"/>
<stop offset="0.48585" stop-color="#9301FF"/>
<stop offset="0.71428" stop-color="#CC01FE"/>
</radialGradient>
<radialGradient id="paint1_radial_5637_48885" cx="0" cy="0" r="1" gradientUnits="userSpaceOnUse" gradientTransform="translate(644.482 269.293) rotate(146.921) scale(27.4381 63.6028)">
<stop offset="0.0977501" stop-color="#D730A2"/>
<stop offset="0.467786" stop-color="#FD291C"/>
<stop offset="0.700031" stop-color="#FCA13D"/>
</radialGradient>
<linearGradient id="paint2_linear_5637_48885" x1="656.294" y1="264.021" x2="656.294" y2="285.747" gradientUnits="userSpaceOnUse">
<stop stop-color="#9F58EE"/>
<stop offset="1" stop-color="#56F77C"/>
</linearGradient>
<clipPath id="clip0_5637_48885">
<rect width="35" height="35" fill="white" transform="translate(496.765 113.794) scale(1.00039)"/>
</clipPath>
<clipPath id="clip1_5637_48885">
<rect width="35" height="35" fill="white" transform="translate(627.57 250.732) scale(1.00039)"/>
</clipPath>
<clipPath id="clip2_5637_48885">
<rect width="35" height="35" fill="white" transform="translate(648.355 400.126) scale(1.00039)"/>
</clipPath>
<clipPath id="clip3_5637_48885">
<rect width="35" height="35" fill="white" transform="translate(589.371 536.925) scale(1.00039)"/>
</clipPath>
<clipPath id="clip4_5637_48885">
<rect width="35" height="35" fill="white" transform="translate(490.571 621.085) scale(1.00039)"/>
</clipPath>
<clipPath id="clip5_5637_48885">
<rect width="35" height="35" fill="white" transform="translate(376.074 650.444) scale(1.00039)"/>
</clipPath>
<clipPath id="clip6_5637_48885">
<rect width="35" height="35" fill="white" transform="translate(219.923 608.193) scale(1.00039)"/>
</clipPath>
<clipPath id="clip7_5637_48885">
<rect width="35" height="35" fill="white" transform="translate(103.902 490.569) scale(1.00039)"/>
</clipPath>
<clipPath id="clip8_5637_48885">
<rect width="35" height="35" fill="white" transform="translate(75.5156 337.899) scale(1.00039)"/>
</clipPath>
<clipPath id="clip9_5637_48885">
<rect width="35" height="35" fill="white" transform="translate(120.818 198.356) scale(1.00039)"/>
</clipPath>
</defs>
</svg>
