<svg width="44" height="44" viewBox="0 0 44 44" fill="none" xmlns="http://www.w3.org/2000/svg">
<g clip-path="url(#clip0_5637_45959)">
<rect width="44" height="44" fill="#F6F7F9"/>
<g clip-path="url(#clip1_5637_45959)">
<g clip-path="url(#clip2_5637_45959)">
<path d="M40 16.891H6M40 26.8422H6M22.955 5.28125L23 38.4519" stroke="#FACCAE" stroke-width="0.84" stroke-miterlimit="10" stroke-dasharray="1.92 1.92"/>
<path d="M35.75 5.28125V38.4519M10.25 5.28125V38.4519M6 9.42759H40M6 34.3056H40" stroke="#FACCAE" stroke-width="0.84" stroke-miterlimit="10"/>
<mask id="mask0_5637_45959" style="mask-type:luminance" maskUnits="userSpaceOnUse" x="11" y="10" width="24" height="24">
<path d="M35 10H11V34H35V10Z" fill="white"/>
</mask>
<g mask="url(#mask0_5637_45959)">
<path d="M34.4127 21.7603V21.7743C34.4127 22.4332 34.1538 23.0402 33.6315 23.5955C33.4621 23.7767 33.2668 23.9508 33.0432 24.1202C32.8315 24.2802 32.5938 24.4379 32.3327 24.5885C30.6268 25.5744 28.4315 26.1108 25.7398 26.2002C23.0503 26.2896 20.1821 26.2849 17.1327 26.1837L14.2338 26.1014C13.9068 26.1014 13.5985 26.0591 13.3068 25.9767C13.0174 25.8943 12.768 25.7955 12.5586 25.6732C12.3491 25.5532 12.175 25.4096 12.0315 25.2402C11.8903 25.0755 11.8174 24.8967 11.8174 24.7085L11.6762 23.0073C11.6715 22.9531 11.6668 22.8991 11.6644 22.8449C11.648 22.6614 11.6362 22.4778 11.6244 22.2966V22.2896C11.5962 21.8167 11.5774 21.3508 11.5703 20.892V20.0261C11.5774 19.3555 11.6127 18.7014 11.6691 18.0637C11.8103 16.5108 12.7327 15.2402 14.4362 14.2591C15.8291 13.4544 17.4621 13.0543 19.335 13.0567C21.2103 13.0614 22.8456 13.4661 24.248 14.2755C25.0385 14.7319 25.6174 15.2591 25.9844 15.8567C26.3515 16.4544 26.4927 17.0591 26.408 17.6803C27.4762 17.6285 28.5304 17.7108 29.5633 17.9226C30.5986 18.1344 31.5115 18.4685 32.3021 18.9249C33.7021 19.7343 34.408 20.6803 34.4127 21.7603Z" fill="white" stroke="#DF3F17" stroke-width="1.32" stroke-linecap="round" stroke-linejoin="round"/>
<path d="M11.5711 20.0273V20.8132C11.5664 20.6861 11.5664 20.5614 11.5664 20.4367V20.4179C11.5664 20.2861 11.5664 20.1567 11.5711 20.0273Z" stroke="#DF3F17" stroke-width="0.564706" stroke-linecap="round" stroke-linejoin="round"/>
<path d="M34.4135 21.773V26.4789C34.4135 27.1377 34.1546 27.7448 33.6323 28.3C33.3029 28.653 32.8699 28.9824 32.3334 29.293C30.6276 30.2789 28.4323 30.8154 25.7405 30.9048C23.0511 30.9942 20.1828 30.9895 17.1335 30.8883L14.2346 30.806C13.9076 30.806 13.5993 30.7636 13.3076 30.6813C13.0182 30.5989 12.7688 30.5001 12.5593 30.3777C12.3499 30.2577 12.1758 30.1142 12.0323 29.9448C11.8911 29.7801 11.8182 29.6013 11.8182 29.413L11.677 27.7119C11.6558 27.4742 11.6393 27.2366 11.6252 27.0013V26.9942C11.5876 26.3683 11.5664 25.7518 11.5664 25.1518V25.1095L11.5711 20.8906C11.5782 21.3495 11.597 21.8154 11.6252 22.2883V22.2954C11.637 22.4765 11.6488 22.66 11.6652 22.8436C11.6676 22.8977 11.6723 22.9518 11.677 23.006L11.8182 24.7071C11.8182 24.8954 11.8911 25.0742 12.0323 25.2389C12.1758 25.4083 12.3499 25.5519 12.5593 25.6719C12.7688 25.7942 13.0182 25.893 13.3076 25.9754C13.5993 26.0577 13.9076 26.1001 14.2346 26.1001L17.1335 26.1825C20.1828 26.2836 23.0511 26.2883 25.7405 26.1989C28.4323 26.1095 30.6276 25.573 32.3334 24.5871C32.5947 24.4365 32.8323 24.2789 33.044 24.1189C33.2675 23.9495 33.4629 23.7753 33.6323 23.5941C34.1546 23.0389 34.4135 22.4319 34.4135 21.773Z" fill="white" stroke="#DF3F17" stroke-width="1.32" stroke-linecap="round" stroke-linejoin="round"/>
<path d="M11.5664 25.2888V25.1523" stroke="#DF3F17" stroke-width="0.564706" stroke-linecap="round" stroke-linejoin="round"/>
<path d="M11.5703 20.0252V19.8652" stroke="#DF3F17" stroke-width="0.564706" stroke-linecap="round" stroke-linejoin="round"/>
</g>
</g>
</g>
</g>
<rect x="0.5" y="0.5" width="43" height="43" stroke="#FACCAE"/>
<defs>
<clipPath id="clip0_5637_45959">
<rect width="44" height="44" fill="white"/>
</clipPath>
<clipPath id="clip1_5637_45959">
<rect width="32" height="32" fill="white" transform="translate(7 7)"/>
</clipPath>
<clipPath id="clip2_5637_45959">
<rect width="34" height="34" fill="white" transform="translate(6 5)"/>
</clipPath>
</defs>
</svg>
