<svg xmlns="http://www.w3.org/2000/svg" viewBox="0 0 1920 960" preserveAspectRatio="none">
<defs>
<clipPath id="gcTop"><rect x="0" y="0" width="1920" height="480"/></clipPath>
<clipPath id="gcBot"><rect x="0" y="480" width="1920" height="480"/></clipPath>
</defs>
<g fill="none" stroke="#7a7a7a" stroke-width="1.0" vector-effect="non-scaling-stroke">
<g>
<path d="M -211.20 0 Q 211.20 480 -211.20 960"/>
<path d="M -138.00 0 Q 258.00 480 -138.00 960"/>
<path d="M -64.80 0 Q 304.80 480 -64.80 960"/>
<path d="M 8.40 0 Q 351.60 480 8.40 960"/>
<path d="M 81.60 0 Q 398.40 480 81.60 960"/>
<path d="M 154.80 0 Q 445.20 480 154.80 960"/>
<path d="M 228.00 0 Q 492.00 480 228.00 960"/>
<path d="M 301.20 0 Q 538.80 480 301.20 960"/>
<path d="M 374.40 0 Q 585.60 480 374.40 960"/>
<path d="M 447.60 0 Q 632.40 480 447.60 960"/>
<path d="M 520.80 0 Q 679.20 480 520.80 960"/>
<path d="M 594.00 0 Q 726.00 480 594.00 960"/>
<path d="M 667.20 0 Q 772.80 480 667.20 960"/>
<path d="M 740.40 0 Q 819.60 480 740.40 960"/>
<path d="M 813.60 0 Q 866.40 480 813.60 960"/>
<path d="M 886.80 0 Q 913.20 480 886.80 960"/>
<path d="M 960.00 0 Q 960.00 480 960.00 960"/>
<path d="M 1033.20 0 Q 1006.80 480 1033.20 960"/>
<path d="M 1106.40 0 Q 1053.60 480 1106.40 960"/>
<path d="M 1179.60 0 Q 1100.40 480 1179.60 960"/>
<path d="M 1252.80 0 Q 1147.20 480 1252.80 960"/>
<path d="M 1326.00 0 Q 1194.00 480 1326.00 960"/>
<path d="M 1399.20 0 Q 1240.80 480 1399.20 960"/>
<path d="M 1472.40 0 Q 1287.60 480 1472.40 960"/>
<path d="M 1545.60 0 Q 1334.40 480 1545.60 960"/>
<path d="M 1618.80 0 Q 1381.20 480 1618.80 960"/>
<path d="M 1692.00 0 Q 1428.00 480 1692.00 960"/>
<path d="M 1765.20 0 Q 1474.80 480 1765.20 960"/>
<path d="M 1838.40 0 Q 1521.60 480 1838.40 960"/>
<path d="M 1911.60 0 Q 1568.40 480 1911.60 960"/>
<path d="M 1984.80 0 Q 1615.20 480 1984.80 960"/>
<path d="M 2058.00 0 Q 1662.00 480 2058.00 960"/>
<path d="M 2131.20 0 Q 1708.80 480 2131.20 960"/>
</g>
<g clip-path="url(#gcTop)"><g>
<animateTransform attributeName="transform" type="translate" from="0 0" to="0 -60" dur="8s" repeatCount="indefinite" calcMode="linear"/>
<line x1="0" y1="540" x2="1920" y2="540"/>
<line x1="0" y1="480" x2="1920" y2="480"/>
<line x1="0" y1="420" x2="1920" y2="420"/>
<line x1="0" y1="360" x2="1920" y2="360"/>
<line x1="0" y1="300" x2="1920" y2="300"/>
<line x1="0" y1="240" x2="1920" y2="240"/>
<line x1="0" y1="180" x2="1920" y2="180"/>
<line x1="0" y1="120" x2="1920" y2="120"/>
<line x1="0" y1="60" x2="1920" y2="60"/>
<line x1="0" y1="0" x2="1920" y2="0"/>
<line x1="0" y1="-60" x2="1920" y2="-60"/>
<line x1="0" y1="-120" x2="1920" y2="-120"/>
</g></g>
<g clip-path="url(#gcBot)"><g>
<animateTransform attributeName="transform" type="translate" from="0 0" to="0 60" dur="8s" repeatCount="indefinite" calcMode="linear"/>
<line x1="0" y1="420" x2="1920" y2="420"/>
<line x1="0" y1="480" x2="1920" y2="480"/>
<line x1="0" y1="540" x2="1920" y2="540"/>
<line x1="0" y1="600" x2="1920" y2="600"/>
<line x1="0" y1="660" x2="1920" y2="660"/>
<line x1="0" y1="720" x2="1920" y2="720"/>
<line x1="0" y1="780" x2="1920" y2="780"/>
<line x1="0" y1="840" x2="1920" y2="840"/>
<line x1="0" y1="900" x2="1920" y2="900"/>
<line x1="0" y1="960" x2="1920" y2="960"/>
<line x1="0" y1="1020" x2="1920" y2="1020"/>
<line x1="0" y1="1080" x2="1920" y2="1080"/>
</g></g>
</g>
</svg>
